<?xml version="1.0" encoding="utf-8"?>
<!-- Generator: Adobe Illustrator 24.0.3, SVG Export Plug-In . SVG Version: 6.00 Build 0)  -->
<svg version="1.1" id="Calque_1" xmlns="http://www.w3.org/2000/svg" xmlns:xlink="http://www.w3.org/1999/xlink" x="0px" y="0px"
	 viewBox="0 0 349.2 265.2" style="enable-background:new 0 0 349.2 265.2;" xml:space="preserve">
<style type="text/css">
	.st0{clip-path:url(#SVGID_2_);}
	.st1{clip-path:url(#SVGID_4_);fill:#FEEB19;}
	.st2{clip-path:url(#SVGID_6_);}
	.st3{clip-path:url(#SVGID_8_);fill:#FEEB19;}
	.st4{clip-path:url(#SVGID_10_);fill:#FEEB19;}
	.st5{clip-path:url(#SVGID_12_);}
	.st6{clip-path:url(#SVGID_14_);fill:#FEEB19;}
	.st7{clip-path:url(#SVGID_16_);}
	.st8{clip-path:url(#SVGID_18_);fill:#FEEB19;}
	.st9{clip-path:url(#SVGID_20_);}
	.st10{clip-path:url(#SVGID_22_);fill:#FEEB19;}
	.st11{clip-path:url(#SVGID_24_);}
	.st12{clip-path:url(#SVGID_26_);fill:#FEEB19;}
	.st13{clip-path:url(#SVGID_28_);}
	.st14{clip-path:url(#SVGID_30_);fill:#FEEB19;}
	.st15{clip-path:url(#SVGID_32_);}
	.st16{clip-path:url(#SVGID_34_);fill:#FEEB19;}
	.st17{clip-path:url(#SVGID_36_);}
	.st18{clip-path:url(#SVGID_38_);fill:#FEEB19;}
	.st19{clip-path:url(#SVGID_40_);}
	.st20{clip-path:url(#SVGID_42_);fill:#FEEB19;}
	.st21{clip-path:url(#SVGID_44_);}
	.st22{clip-path:url(#SVGID_46_);fill:#FEEB19;}
	.st23{clip-path:url(#SVGID_48_);}
	.st24{clip-path:url(#SVGID_50_);fill:#FEEB19;}
	.st25{clip-path:url(#SVGID_52_);}
	.st26{clip-path:url(#SVGID_54_);fill:#FEEB19;}
</style>
<g>
	<defs>
		<polygon id="SVGID_1_" points="28.1,25.6 28.1,32.9 1.9,32.9 1.9,0 10.7,0 10.7,25.6 		"/>
	</defs>
	<clipPath id="SVGID_2_">
		<use xlink:href="#SVGID_1_"  style="overflow:visible;"/>
	</clipPath>
	<g class="st0">
		<g>
			<defs>
				<rect id="SVGID_3_" x="-24.9" y="-85.9" width="687.7" height="644.7"/>
			</defs>
			<clipPath id="SVGID_4_">
				<use xlink:href="#SVGID_3_"  style="overflow:visible;"/>
			</clipPath>
			<path class="st1" d="M-1.4-3.4h32.9v39.6H-1.4V-3.4z"/>
		</g>
	</g>
</g>
<g>
	<defs>
		<path id="SVGID_5_" d="M31.6,10.4H31c-1-0.1-2.2-0.7-2.2-1.7s1.4-1.9,3.1-1.9c1.7,0,3,0.9,3,2.1c0,1.5-2,3.4-4.4,4.6h-2.4
			c1.4-0.5,2.9-2.2,2.9-3L31.6,10.4z"/>
	</defs>
	<clipPath id="SVGID_6_">
		<use xlink:href="#SVGID_5_"  style="overflow:visible;"/>
	</clipPath>
	<g class="st2">
		<g>
			<defs>
				<rect id="SVGID_7_" x="-24.9" y="-85.9" width="687.7" height="644.7"/>
			</defs>
			<clipPath id="SVGID_8_">
				<use xlink:href="#SVGID_7_"  style="overflow:visible;"/>
			</clipPath>
			<path class="st3" d="M24.7,3.4h13.5v13.5H24.7V3.4z"/>
		</g>
	</g>
</g>
<g>
	<defs>
		<rect id="SVGID_9_" x="215.6" y="0.3" width="6.7" height="32.9"/>
	</defs>
	<clipPath id="SVGID_10_">
		<use xlink:href="#SVGID_9_"  style="overflow:visible;"/>
	</clipPath>
	<path class="st4" d="M212.3-3.1h13.5v39.6h-13.5V-3.1z"/>
</g>
<g>
	<defs>
		<path id="SVGID_11_" d="M257.5,0.6v30h-6.7v-7.3c0-7.1,0.2-10.6,0.2-10.6s-2.3,4.2-2.6,4.6l-3.4,6h-3.6l-3.4-6
			c-0.2-0.4-2.5-4.6-2.6-4.6s0.2,3.6,0.2,10.6v7.3H229v-30h6.4l5.4,9.1c2.1,3.6,2.4,4.4,2.5,4.4c0.1,0,0.4-0.8,2.5-4.4l5.4-9.1
			L257.5,0.6L257.5,0.6z"/>
	</defs>
	<clipPath id="SVGID_12_">
		<use xlink:href="#SVGID_11_"  style="overflow:visible;"/>
	</clipPath>
	<g class="st5">
		<g>
			<defs>
				<rect id="SVGID_13_" x="-310.2" y="-85.6" width="687.7" height="644.7"/>
			</defs>
			<clipPath id="SVGID_14_">
				<use xlink:href="#SVGID_13_"  style="overflow:visible;"/>
			</clipPath>
			<path class="st6" d="M225.8-2.8h35.1V34h-35.1V-2.8z"/>
		</g>
	</g>
</g>
<g>
	<defs>
		<path id="SVGID_15_" d="M277.1,19.5l-2-5.8c-0.6-1.7-1.4-4.5-1.4-4.5s-0.8,2.7-1.4,4.5l-2,5.8H277.1z M279.2,25.9H268l-1.6,4.8
			h-7.3l11.4-30h6.4l11.4,30H281L279.2,25.9z"/>
	</defs>
	<clipPath id="SVGID_16_">
		<use xlink:href="#SVGID_15_"  style="overflow:visible;"/>
	</clipPath>
	<g class="st7">
		<g>
			<defs>
				<rect id="SVGID_17_" x="-310.2" y="-85.6" width="687.7" height="644.7"/>
			</defs>
			<clipPath id="SVGID_18_">
				<use xlink:href="#SVGID_17_"  style="overflow:visible;"/>
			</clipPath>
			<path class="st8" d="M255.8-2.8h35.9V34h-35.9V-2.8z"/>
		</g>
	</g>
</g>
<g>
	<defs>
		<path id="SVGID_19_" d="M309.2,28.7c-1.7,1.9-5,3.1-7.7,3.1c-8.1,0-14.8-6.5-14.8-15.7c0-9,6.5-15.7,14.8-15.7
			c5.5,0,10.3,3.1,12.9,8l-6.9,1.9c-1.4-1.7-3.8-2.8-5.9-2.8c-4.8,0-7.6,3.6-7.6,8.5c0,5.3,3.4,8.6,8,8.6c4.6,0,6.5-2.5,7.3-4.8
			h-7.4v-5.8H315v16.9h-5.8C309.2,29.2,309.3,28.8,309.2,28.7z"/>
	</defs>
	<clipPath id="SVGID_20_">
		<use xlink:href="#SVGID_19_"  style="overflow:visible;"/>
	</clipPath>
	<g class="st9">
		<g>
			<defs>
				<rect id="SVGID_21_" x="-310.2" y="-85.6" width="687.7" height="644.7"/>
			</defs>
			<clipPath id="SVGID_22_">
				<use xlink:href="#SVGID_21_"  style="overflow:visible;"/>
			</clipPath>
			<path class="st10" d="M283.4-2.8h35v37.9h-35V-2.8z"/>
		</g>
	</g>
</g>
<g>
	<defs>
		<polygon id="SVGID_23_" points="348,25.9 348,33.2 321.7,33.2 321.7,0.3 347.7,0.3 347.7,7.7 330.4,7.7 330.4,13.1 343.9,13.1 
			343.9,20 330.4,20 330.4,25.9 		"/>
	</defs>
	<clipPath id="SVGID_24_">
		<use xlink:href="#SVGID_23_"  style="overflow:visible;"/>
	</clipPath>
	<g class="st11">
		<g>
			<defs>
				<rect id="SVGID_25_" x="-310.2" y="-85.6" width="687.7" height="644.7"/>
			</defs>
			<clipPath id="SVGID_26_">
				<use xlink:href="#SVGID_25_"  style="overflow:visible;"/>
			</clipPath>
			<path class="st12" d="M318.5-3.1h32.9v39.6h-32.9V-3.1z"/>
		</g>
	</g>
</g>
<g>
	<defs>
		<path id="SVGID_27_" d="M20,243.7c-0.8-2.7-3.2-3.9-5.4-3.9c-2.3,0-3.6,1.1-3.6,2.3c0,2,3.2,2.7,6.9,4.1c4.7,1.6,9.5,4.2,9.5,9.3
			c0,5.4-5,9.3-12.2,9.3c-6.5,0-11.2-3.5-13.2-9l7.1-1.9c0.8,2.3,3.1,4.6,6.3,4.6c2.7,0,4-1.2,4-2.7c0-2.4-3.7-3-8.1-4.7
			c-3.8-1.4-8-3.4-8-8.6c0-4.7,5-8.9,11.7-8.9c5.9,0,10.7,3.5,12.2,8.2L20,243.7z"/>
	</defs>
	<clipPath id="SVGID_28_">
		<use xlink:href="#SVGID_27_"  style="overflow:visible;"/>
	</clipPath>
	<g class="st13">
		<g>
			<defs>
				<rect id="SVGID_29_" x="-24.9" y="-215.9" width="687.7" height="644.7"/>
			</defs>
			<clipPath id="SVGID_30_">
				<use xlink:href="#SVGID_29_"  style="overflow:visible;"/>
			</clipPath>
			<path class="st14" d="M-1.2,230.2h32.1v37.8H-1.2L-1.2,230.2z"/>
		</g>
	</g>
</g>
<g>
	<defs>
		<path id="SVGID_31_" d="M46.4,253.1l-2.3-5.8c-0.7-1.7-1.5-4.4-1.5-4.4s-0.9,2.7-1.5,4.4l-2.3,5.8H46.4z M48.8,259.5H36.4
			l-1.8,4.7h-8l12.5-29.9h7.1l12.5,29.9h-8.1L48.8,259.5z"/>
	</defs>
	<clipPath id="SVGID_32_">
		<use xlink:href="#SVGID_31_"  style="overflow:visible;"/>
	</clipPath>
	<g class="st15">
		<g>
			<defs>
				<rect id="SVGID_33_" x="-24.9" y="-215.9" width="687.7" height="644.7"/>
			</defs>
			<clipPath id="SVGID_34_">
				<use xlink:href="#SVGID_33_"  style="overflow:visible;"/>
			</clipPath>
			<path class="st16" d="M23.2,230.8H62v36.7H23.2L23.2,230.8z"/>
		</g>
	</g>
</g>
<g>
	<defs>
		<path id="SVGID_35_" d="M88.3,234.2v29.9h-7l-6.3-8.3c-2.9-3.8-7-9.4-7.1-9.4v11.2v6.6h-7.5v-29.9h7l6.6,8.5c2,2.6,6.7,9,6.8,9
			c0.1,0,0-5.3,0-10.7v-6.8L88.3,234.2L88.3,234.2z"/>
	</defs>
	<clipPath id="SVGID_36_">
		<use xlink:href="#SVGID_35_"  style="overflow:visible;"/>
	</clipPath>
	<g class="st17">
		<g>
			<defs>
				<rect id="SVGID_37_" x="-24.9" y="-215.9" width="687.7" height="644.7"/>
			</defs>
			<clipPath id="SVGID_38_">
				<use xlink:href="#SVGID_37_"  style="overflow:visible;"/>
			</clipPath>
			<path class="st18" d="M56.9,230.8h34.7v36.7H56.9V230.8z"/>
		</g>
	</g>
</g>
<g>
	<defs>
		<path id="SVGID_39_" d="M108.9,243.7c-0.8-2.7-3.2-3.9-5.4-3.9c-2.3,0-3.6,1.1-3.6,2.3c0,2,3.2,2.7,6.9,4.1
			c4.7,1.6,9.5,4.2,9.5,9.3c0,5.4-5,9.3-12.2,9.3c-6.5,0-11.2-3.5-13.2-9l7.1-1.9c0.8,2.3,3.1,4.6,6.3,4.6c2.7,0,4-1.2,4-2.7
			c0-2.4-3.7-3-8.1-4.7c-3.8-1.4-8-3.4-8-8.6c0-4.7,5-8.9,11.7-8.9c5.9,0,10.7,3.5,12.2,8.2L108.9,243.7z"/>
	</defs>
	<clipPath id="SVGID_40_">
		<use xlink:href="#SVGID_39_"  style="overflow:visible;"/>
	</clipPath>
	<g class="st19">
		<g>
			<defs>
				<rect id="SVGID_41_" x="-24.9" y="-215.9" width="687.7" height="644.7"/>
			</defs>
			<clipPath id="SVGID_42_">
				<use xlink:href="#SVGID_41_"  style="overflow:visible;"/>
			</clipPath>
			<path class="st20" d="M87.7,230.2h32.1v37.8H87.7V230.2z"/>
		</g>
	</g>
</g>
<g>
	<defs>
		<path id="SVGID_43_" d="M277.3,235.7v29.9h-7l-6.3-8.3c-2.9-3.8-7-9.4-7.1-9.4v11.2v6.6h-7.5v-29.9h7l6.6,8.5c2,2.6,6.7,9,6.8,9
			c0.1,0,0-5.3,0-10.7v-6.8L277.3,235.7L277.3,235.7z"/>
	</defs>
	<clipPath id="SVGID_44_">
		<use xlink:href="#SVGID_43_"  style="overflow:visible;"/>
	</clipPath>
	<g class="st21">
		<g>
			<defs>
				<rect id="SVGID_45_" x="-310.2" y="-215.6" width="687.7" height="644.7"/>
			</defs>
			<clipPath id="SVGID_46_">
				<use xlink:href="#SVGID_45_"  style="overflow:visible;"/>
			</clipPath>
			<path class="st22" d="M245.9,232.4h34.7v36.7h-34.7V232.4z"/>
		</g>
	</g>
</g>
<g>
	<defs>
		<path id="SVGID_47_" d="M296.9,259.2c5.1,0,8.4-3.5,8.4-8.4c0-5.1-3.4-8.4-8.4-8.4s-8.4,3.4-8.4,8.4
			C288.5,255.7,291.8,259.2,296.9,259.2 M296.9,235.1c8.9,0,16.2,6.5,16.2,15.6c0,9-7.2,15.6-16.2,15.6c-8.9,0-16.1-6.5-16.1-15.6
			C280.6,241.6,287.9,235.1,296.9,235.1"/>
	</defs>
	<clipPath id="SVGID_48_">
		<use xlink:href="#SVGID_47_"  style="overflow:visible;"/>
	</clipPath>
	<g class="st23">
		<g>
			<defs>
				<rect id="SVGID_49_" x="-310.2" y="-215.6" width="687.7" height="644.7"/>
			</defs>
			<clipPath id="SVGID_50_">
				<use xlink:href="#SVGID_49_"  style="overflow:visible;"/>
			</clipPath>
			<path class="st24" d="M277.3,231.8h39.1v37.8h-39.1V231.8z"/>
		</g>
	</g>
</g>
<g>
	<defs>
		<path id="SVGID_51_" d="M347.7,235.7v29.9h-7.3v-7.3c0-7.1,0.3-10.6,0.2-10.6c-0.1,0-2.6,4.1-2.8,4.6l-3.7,5.9h-3.9l-3.7-5.9
			c-0.3-0.4-2.8-4.6-2.8-4.6s0.2,3.5,0.2,10.6v7.3h-7.3v-29.9h7l5.8,9c2.3,3.6,2.7,4.4,2.7,4.4s0.4-0.8,2.7-4.4l5.8-9H347.7z"/>
	</defs>
	<clipPath id="SVGID_52_">
		<use xlink:href="#SVGID_51_"  style="overflow:visible;"/>
	</clipPath>
	<g class="st25">
		<g>
			<defs>
				<rect id="SVGID_53_" x="-310.2" y="-215.6" width="687.7" height="644.7"/>
			</defs>
			<clipPath id="SVGID_54_">
				<use xlink:href="#SVGID_53_"  style="overflow:visible;"/>
			</clipPath>
			<path class="st26" d="M313.1,232.4H351v36.7h-37.8V232.4z"/>
		</g>
	</g>
</g>
</svg>
